<svg width="88" height="88" viewBox="0 0 88 88" fill="none" xmlns="http://www.w3.org/2000/svg">
<path d="M26.6666 47.5704C18.7466 47.5704 16.2133 36.9037 21.3333 36.9037C22.8 36.9037 24 38.1037 24 39.5704C24 41.037 25.2 42.237 26.6666 42.237C30.9066 42.237 31.1733 42.3437 32.24 41.917C33.6 41.3837 35.1466 42.0237 35.7066 43.4104C36.2666 44.7704 35.6 46.317 34.2133 46.877C32.0533 47.757 30.9066 47.5704 26.6666 47.5704Z" fill="#FFF528"/>
<path d="M37.2533 41.9436C35.6267 41.9436 34.3466 40.477 34.6133 38.8503C34.9866 36.3703 33.0667 34.237 30.6667 34.237C27.5467 34.237 24.4 34.5303 21.3867 31.517C15.5733 25.7303 19.6533 15.5703 28 15.5703H32C39.92 15.5703 42.4533 26.237 37.3333 26.237C35.8666 26.237 34.6667 25.037 34.6667 23.5703C34.6667 22.1036 33.4667 20.9036 32 20.9036H28C24.4267 20.9036 22.6667 25.2503 25.1733 27.7303C26.6133 29.1703 28.16 28.9036 30.6667 28.9036C40.2933 28.9036 42.5867 41.9436 37.2533 41.9436Z" fill="#FFF528"/>
<path d="M29.3334 20.9037C27.8667 20.9037 26.6667 19.7037 26.6667 18.237V15.5704C26.6667 14.1037 27.8667 12.9037 29.3334 12.9037C30.8 12.9037 32 14.1037 32 15.5704V18.237C32 19.7037 30.8 20.9037 29.3334 20.9037Z" fill="#FFF528"/>
<path d="M29.3333 60.9036C13.1467 60.9036 0 47.7569 0 31.5703C0 15.3836 13.1467 2.23694 29.3333 2.23694C45.52 2.23694 58.6667 15.3836 58.6667 31.5703C58.6667 33.0369 57.4667 34.2369 56 34.2369C54.5333 34.2369 53.3333 33.0369 53.3333 31.5703C53.3333 18.3436 42.56 7.57027 29.3333 7.57027C16.1067 7.57027 5.33333 18.3436 5.33333 31.5703C5.33333 44.7969 16.1067 55.5703 29.3333 55.5703C30.8 55.5703 32 56.7703 32 58.2369C32 59.7036 30.8 60.9036 29.3333 60.9036Z" fill="#FFF528"/>
<path d="M44.2667 85.117C42.9067 84.5303 42.2933 82.957 42.88 81.597C43.4667 80.2636 45.04 79.6236 46.4 80.2103C62.16 87.0903 80 75.5436 80 58.2103C80 44.9836 69.2267 34.2103 56 34.2103C34.72 34.2103 24.08 59.9436 38.8533 75.0103C39.8933 76.0503 39.8667 77.757 38.8267 78.7703C37.76 79.8103 36.08 79.7836 35.0667 78.7436C17.0133 60.317 30 28.877 56.0267 28.877C72.2133 28.877 85.36 42.0236 85.36 58.2103C85.36 79.4103 63.52 93.517 44.2933 85.0903L44.2667 85.117Z" fill="#FFF528"/>
<path d="M48 71.5703C46.5333 71.5703 45.3333 70.3703 45.3333 68.9036V47.5703C45.3333 45.4903 47.5733 44.237 49.3333 45.2503L68 55.917C69.7866 56.9303 69.7866 59.517 68 60.557C47.8133 72.1036 49.0133 71.5703 48 71.5703ZM50.6666 52.157V64.2903L61.28 58.2103L50.6666 52.1303V52.157Z" fill="#FFF528"/>
</svg>
