<svg width="32" height="32" viewBox="0 0 32 32" fill="none" xmlns="http://www.w3.org/2000/svg">
<path fill-rule="evenodd" clip-rule="evenodd" d="M21.3333 4.32349H10.6667C6.98477 4.32349 4 7.30826 4 10.9902V21.6568C4 25.3387 6.98477 28.3235 10.6667 28.3235H21.3333C25.0152 28.3235 28 25.3387 28 21.6568V10.9902C28 7.30826 25.0152 4.32349 21.3333 4.32349ZM25.6667 21.6568C25.6593 24.047 23.7235 25.9828 21.3333 25.9902H10.6667C8.27647 25.9828 6.34065 24.047 6.33333 21.6568V10.9902C6.34065 8.59995 8.27647 6.66414 10.6667 6.65682H21.3333C23.7235 6.66414 25.6593 8.59995 25.6667 10.9902V21.6568ZM22.3333 11.3235C23.0697 11.3235 23.6667 10.7265 23.6667 9.99015C23.6667 9.25378 23.0697 8.65682 22.3333 8.65682C21.5969 8.65682 21 9.25378 21 9.99015C21 10.7265 21.5969 11.3235 22.3333 11.3235ZM16 10.3235C12.6863 10.3235 10 13.0098 10 16.3235C10 19.6372 12.6863 22.3235 16 22.3235C19.3137 22.3235 22 19.6372 22 16.3235C22.0036 14.7311 21.3725 13.2029 20.2465 12.0769C19.1205 10.9509 17.5924 10.3199 16 10.3235ZM12.3333 16.3235C12.3333 18.3486 13.9749 19.9902 16 19.9902C18.0251 19.9902 19.6667 18.3486 19.6667 16.3235C19.6667 14.2984 18.0251 12.6568 16 12.6568C13.9749 12.6568 12.3333 14.2984 12.3333 16.3235Z" fill="#FFF528"/>
</svg>
