<svg width="32" height="32" viewBox="0 0 32 32" fill="none" xmlns="http://www.w3.org/2000/svg">
<path fill-rule="evenodd" clip-rule="evenodd" d="M6 4.32349C4.89543 4.32349 4 5.21891 4 6.32349V26.3235C4 27.428 4.89543 28.3235 6 28.3235H26C27.1045 28.3235 28 27.428 28 26.3235V6.32349C28 5.21891 27.1045 4.32349 26 4.32349H6ZM11.361 9.66045C11.3685 10.9354 10.4141 11.7211 9.28164 11.7154C8.21476 11.7098 7.28476 10.8604 7.29039 9.66233C7.29601 8.53545 8.18664 7.62982 9.34352 7.65607C10.5173 7.68233 11.3685 8.54295 11.361 9.66045ZM16.3729 13.3392H13.0129H13.0111V24.7523H16.5623V24.486C16.5623 23.9795 16.5619 23.4728 16.5615 22.966C16.5604 21.6143 16.5592 20.2611 16.5661 18.9098C16.568 18.5816 16.5829 18.2404 16.6673 17.9272C16.9841 16.7572 18.0361 16.0016 19.2099 16.1874C19.9636 16.3054 20.4623 16.7423 20.6723 17.453C20.8017 17.8972 20.8599 18.3754 20.8655 18.8386C20.8807 20.2354 20.8785 21.6322 20.8764 23.0291C20.8756 23.5222 20.8748 24.0155 20.8748 24.5086V24.7504H24.4373V24.4767C24.4373 23.874 24.4371 23.2715 24.4367 22.669C24.436 21.163 24.4352 19.657 24.4392 18.1504C24.4411 17.4698 24.368 16.7986 24.2011 16.1404C23.9517 15.1616 23.4361 14.3516 22.598 13.7667C22.0036 13.3504 21.3511 13.0823 20.6217 13.0523C20.5387 13.0488 20.4549 13.0443 20.3708 13.0398C19.9979 13.0196 19.6188 12.9991 19.2623 13.071C18.2423 13.2754 17.3461 13.7423 16.6692 14.5654C16.5905 14.6598 16.5136 14.7556 16.3988 14.8987L16.3729 14.9311V13.3392ZM7.57552 24.756H11.1099V13.3466H7.57552V24.756Z" fill="#FFF528"/>
</svg>
