<svg width="169" height="57" viewBox="0 0 169 57" fill="none" xmlns="http://www.w3.org/2000/svg">
<rect x="0.363617" width="168.636" height="56.2121" rx="8.43182" fill="#FFF528"/>
<path d="M35.0809 29.1786C35.098 27.8859 35.4497 26.6184 36.1034 25.494C36.757 24.3696 37.6913 23.4249 38.8194 22.7478C38.1028 21.7486 37.1574 20.9262 36.0582 20.3461C34.9591 19.766 33.7366 19.4441 32.4878 19.406C29.8237 19.1329 27.2411 20.9623 25.8836 20.9623C24.4998 20.9623 22.4097 19.4331 20.1589 19.4783C18.7031 19.5242 17.2843 19.9375 16.0407 20.6779C14.7972 21.4184 13.7713 22.4607 13.063 23.7033C9.99489 28.8894 12.2834 36.5113 15.2224 40.7033C16.6929 42.7561 18.4114 45.0491 20.6601 44.9677C22.8606 44.8786 23.6824 43.5978 26.3386 43.5978C28.9701 43.5978 29.7411 44.9677 32.0355 44.916C34.3967 44.8786 35.8843 42.8542 37.3032 40.782C38.3598 39.3194 39.1728 37.7028 39.7121 35.9922C38.3403 35.4258 37.1696 34.4776 36.3461 33.266C35.5225 32.0543 35.0825 30.6328 35.0809 29.1786Z" fill="black"/>
<path d="M30.7474 16.6488C32.0348 15.1399 32.6691 13.2005 32.5155 11.2424C30.5486 11.4441 28.7318 12.3619 27.4269 13.8129C26.789 14.5217 26.3003 15.3464 25.989 16.2397C25.6777 17.133 25.5498 18.0775 25.6125 19.0191C26.5963 19.029 27.5696 18.8208 28.459 18.4102C29.3485 17.9997 30.1309 17.3974 30.7474 16.6488Z" fill="black"/>
<path d="M52.0661 17.0702H54.9749C57.4884 17.0702 58.7111 18.5647 58.7111 21.2759C58.7111 23.987 57.476 25.5 54.9749 25.5H52.0661V17.0702ZM53.468 18.2498V24.3205H54.8205C56.4879 24.3205 57.2722 23.3138 57.2722 21.2944C57.2722 19.2626 56.4817 18.2498 54.8205 18.2498H53.468ZM63.1453 18.8612C64.8497 18.8612 66.0416 19.9666 66.0416 21.8008V22.6469C66.0416 24.5428 64.8497 25.6112 63.1453 25.6112C61.4161 25.6112 60.2365 24.5551 60.2365 22.653V21.807C60.2365 20.0222 61.4346 18.8612 63.1453 18.8612ZM63.1514 19.9666C62.1757 19.9666 61.6199 20.7818 61.6199 21.8749V22.6036C61.6199 23.6967 62.1386 24.5057 63.1514 24.5057C64.1519 24.5057 64.6645 23.7029 64.6645 22.6036V21.8749C64.6645 20.7818 64.1272 19.9666 63.1514 19.9666ZM76.1079 18.9723L74.3911 25.5H72.9954L71.6306 20.683H71.5935L70.2534 25.5H68.8516L67.0606 18.9723H68.5366L69.5865 23.9499H69.6482L70.9636 18.9723H72.2543L73.6068 23.9499H73.6686L74.7369 18.9723H76.1079ZM77.4666 25.5V18.9723H78.8129V20.1457H78.8808C79.0476 19.6331 79.5231 18.8735 80.8447 18.8735C82.1601 18.8735 83.0432 19.6023 83.0432 21.0906V25.5H81.6722V21.492C81.6722 20.4977 81.1534 20.0407 80.3815 20.0407C79.3687 20.0407 78.8376 20.8189 78.8376 21.8749V25.5H77.4666ZM85.1182 25.5V16.6256H86.4892V25.5H85.1182ZM91.1951 18.8612C92.8995 18.8612 94.0914 19.9666 94.0914 21.8008V22.6469C94.0914 24.5428 92.8995 25.6112 91.1951 25.6112C89.4659 25.6112 88.2863 24.5551 88.2863 22.653V21.807C88.2863 20.0222 89.4844 18.8612 91.1951 18.8612ZM91.2012 19.9666C90.2255 19.9666 89.6697 20.7818 89.6697 21.8749V22.6036C89.6697 23.6967 90.1884 24.5057 91.2012 24.5057C92.2017 24.5057 92.7143 23.7029 92.7143 22.6036V21.8749C92.7143 20.7818 92.177 19.9666 91.2012 19.9666ZM97.6424 25.5988C96.3764 25.5988 95.5057 24.8207 95.5057 23.6041C95.5057 22.4492 96.3085 21.6711 97.8153 21.6711H99.4642V21.0597C99.4642 20.3125 98.9887 19.9604 98.2353 19.9604C97.4942 19.9604 97.1607 20.2692 97.0557 20.7015H95.7527C95.833 19.6084 96.6543 18.8735 98.2785 18.8735C99.6742 18.8735 100.829 19.454 100.829 21.0782V25.5H99.526V24.6539H99.4642C99.174 25.1542 98.6058 25.5988 97.6424 25.5988ZM98.0685 24.5366C98.8467 24.5366 99.4642 24.0055 99.4642 23.2953V22.5913H98.0315C97.2348 22.5913 96.8828 22.9927 96.8828 23.5361C96.8828 24.2155 97.451 24.5366 98.0685 24.5366ZM105.053 18.8859C105.973 18.8859 106.677 19.2935 106.931 19.9543H106.999V16.6256H108.37V25.5H107.036V24.4563H106.968C106.77 25.1171 105.986 25.5865 105.035 25.5865C103.534 25.5865 102.558 24.5181 102.558 22.7951V21.6773C102.558 19.9543 103.553 18.8859 105.053 18.8859ZM105.436 20.0098C104.522 20.0098 103.954 20.6892 103.954 21.8749V22.5913C103.954 23.7832 104.528 24.4625 105.467 24.4625C106.393 24.4625 106.999 23.7893 106.999 22.6777V21.6896C106.999 20.683 106.338 20.0098 105.436 20.0098ZM115.898 18.8612C117.602 18.8612 118.794 19.9666 118.794 21.8008V22.6469C118.794 24.5428 117.602 25.6112 115.898 25.6112C114.168 25.6112 112.989 24.5551 112.989 22.653V21.807C112.989 20.0222 114.187 18.8612 115.898 18.8612ZM115.904 19.9666C114.928 19.9666 114.372 20.7818 114.372 21.8749V22.6036C114.372 23.6967 114.891 24.5057 115.904 24.5057C116.904 24.5057 117.417 23.7029 117.417 22.6036V21.8749C117.417 20.7818 116.88 19.9666 115.904 19.9666ZM120.56 25.5V18.9723H121.907V20.1457H121.974C122.141 19.6331 122.617 18.8735 123.938 18.8735C125.254 18.8735 126.137 19.6023 126.137 21.0906V25.5H124.766V21.492C124.766 20.4977 124.247 20.0407 123.475 20.0407C122.462 20.0407 121.931 20.8189 121.931 21.8749V25.5H120.56ZM131.442 19.0156V17.3852H132.782V19.0156H134.245V20.0901H132.782V23.5547C132.782 24.2649 133.047 24.4625 133.782 24.4625C133.968 24.4625 134.215 24.4501 134.32 24.4378V25.4876C134.208 25.5062 133.751 25.5432 133.443 25.5432C131.856 25.5432 131.423 24.9751 131.423 23.6658V20.0901H130.429V19.0156H131.442ZM135.975 25.5V16.6256H137.339V20.1457H137.407C137.549 19.6825 138.081 18.8735 139.39 18.8735C140.662 18.8735 141.57 19.6084 141.57 21.0968V25.5H140.205V21.4982C140.205 20.5039 139.655 20.0407 138.877 20.0407C137.895 20.0407 137.339 20.8127 137.339 21.8749V25.5H135.975ZM146.171 25.6112C144.392 25.6112 143.287 24.5181 143.287 22.6777V21.7946C143.287 19.9419 144.497 18.8612 146.09 18.8612C147.727 18.8612 148.882 19.9975 148.882 21.7946V22.5604H144.645V22.8815C144.645 23.8202 145.201 24.5119 146.164 24.5119C146.881 24.5119 147.375 24.1722 147.468 23.7646H148.808C148.727 24.5181 147.931 25.6112 146.171 25.6112ZM144.645 21.6649H147.542V21.5785C147.542 20.5965 146.967 19.9419 146.097 19.9419C145.226 19.9419 144.645 20.5965 144.645 21.5785V21.6649Z" fill="black"/>
<path d="M54.0547 45.5H51.2016L57.0067 28.6405H60.1439L65.9367 45.5H62.9723L61.4778 40.8312H55.5616L54.0547 45.5ZM58.5876 31.5554H58.4765L56.1915 38.6821H60.8479L58.5876 31.5554ZM73.8109 45.6853C72.1188 45.6853 70.8342 44.8824 70.1426 43.6844H70.0438V49.8353H67.3018V32.4447H69.9697V34.3591H70.0685C70.7848 33.1117 72.1188 32.2718 73.8727 32.2718C76.7999 32.2718 78.8873 34.4826 78.8873 38.3857V39.5467C78.8873 43.425 76.8246 45.6853 73.8109 45.6853ZM73.181 43.425C74.9225 43.425 76.1082 42.0293 76.1082 39.3985V38.4845C76.1082 35.9524 74.9966 34.5073 73.1316 34.5073C71.2171 34.5073 70.0191 36.0636 70.0191 38.4721V39.3985C70.0191 41.8687 71.2295 43.425 73.181 43.425ZM87.7496 45.6853C86.0575 45.6853 84.773 44.8824 84.0813 43.6844H83.9825V49.8353H81.2405V32.4447H83.9084V34.3591H84.0072C84.7236 33.1117 86.0575 32.2718 87.8114 32.2718C90.7387 32.2718 92.826 34.4826 92.826 38.3857V39.5467C92.826 43.425 90.7634 45.6853 87.7496 45.6853ZM87.1197 43.425C88.8613 43.425 90.047 42.0293 90.047 39.3985V38.4845C90.047 35.9524 88.9354 34.5073 87.0703 34.5073C85.1559 34.5073 83.9578 36.0636 83.9578 38.4721V39.3985C83.9578 41.8687 85.1682 43.425 87.1197 43.425ZM98.5082 40.8189H101.25C101.374 42.2763 102.658 43.5238 105.042 43.5238C107.228 43.5238 108.525 42.4986 108.525 40.9053C108.525 39.6208 107.661 38.9291 105.857 38.4968L103.091 37.8051C100.917 37.2987 98.9652 36.0019 98.9652 33.2599C98.9652 30.0362 101.781 28.2699 105.054 28.2699C108.328 28.2699 111.057 30.0362 111.119 33.1858H108.426C108.303 31.753 107.204 30.5673 105.017 30.5673C103.091 30.5673 101.781 31.4813 101.781 33.0499C101.781 34.1492 102.547 34.9396 104.116 35.2978L106.87 35.9772C109.402 36.5947 111.329 37.7928 111.329 40.6583C111.329 43.9684 108.649 45.8335 104.832 45.8335C100.139 45.8335 98.57 43.0915 98.5082 40.8189ZM114.67 32.4447V29.2704H117.363V32.4447H119.907V34.6432H117.363V41.6093C117.363 43.0297 117.894 43.425 119.364 43.425C119.598 43.425 119.821 43.425 119.981 43.4003V45.5C119.759 45.5371 119.24 45.5865 118.684 45.5865C115.51 45.5865 114.633 44.4501 114.633 41.8317V34.6432H112.83V32.4447H114.67ZM127.312 32.2224C131.067 32.2224 133.105 34.8655 133.105 38.4227V39.4726C133.105 43.1533 131.079 45.7223 127.312 45.7223C123.545 45.7223 121.495 43.1533 121.495 39.4726V38.4227C121.495 34.8779 123.557 32.2224 127.312 32.2224ZM127.312 34.4209C125.274 34.4209 124.261 36.0883 124.261 38.4598V39.4602C124.261 41.7946 125.262 43.5114 127.312 43.5114C129.362 43.5114 130.35 41.807 130.35 39.4602V38.4598C130.35 36.076 129.35 34.4209 127.312 34.4209ZM135.421 45.5V32.4447H138.163V34.1615H138.262C138.595 33.3463 139.571 32.2594 141.387 32.2594C141.745 32.2594 142.054 32.2841 142.313 32.3335V34.7544C142.078 34.6926 141.597 34.6556 141.14 34.6556C138.941 34.6556 138.2 36.0142 138.2 37.7681V45.5H135.421ZM148.964 45.7223C145.469 45.7223 143.246 43.4126 143.246 39.5467V38.2251C143.246 34.5815 145.42 32.2224 148.853 32.2224C152.336 32.2224 154.436 34.6679 154.436 38.3486V39.5961H145.951V39.9049C145.951 42.1034 147.136 43.5608 149.002 43.5608C150.397 43.5608 151.348 42.8692 151.682 41.7452H154.288C153.893 43.8573 152.188 45.7223 148.964 45.7223ZM145.951 37.6816H151.756V37.6569C151.756 35.8042 150.607 34.3468 148.866 34.3468C147.099 34.3468 145.951 35.8042 145.951 37.6569V37.6816Z" fill="black"/>
</svg>
