<svg width="169" height="57" viewBox="0 0 169 57" fill="none" xmlns="http://www.w3.org/2000/svg">
<rect width="168.636" height="56.2121" rx="8.43182" fill="#FFF528"/>
<path d="M25.0212 27.3496L11.3683 42.1674C11.3696 42.1701 11.3696 42.174 11.3709 42.1766C11.7902 43.7856 13.2264 44.9697 14.9319 44.9697C15.6141 44.9697 16.254 44.7809 16.8028 44.4504L16.8464 44.4242L32.2137 35.3565L25.0212 27.3496Z" fill="#EA4335"/>
<path d="M38.8329 24.8264L38.82 24.8173L32.1853 20.8846L24.7107 27.6864L32.2123 35.355L38.8111 31.4617C39.9677 30.8218 40.7538 29.5747 40.7538 28.1375C40.7538 26.7082 39.9793 25.4677 38.8329 24.8264Z" fill="#FBBC04"/>
<path d="M11.3681 14.0435C11.286 14.3529 11.2424 14.6781 11.2424 15.0138V41.1982C11.2424 41.5339 11.286 41.8591 11.3694 42.1672L25.4902 27.7283L11.3681 14.0435Z" fill="#4285F4"/>
<path d="M25.122 28.106L32.1876 20.8819L16.8382 11.7814C16.2804 11.4391 15.629 11.2424 14.9327 11.2424C13.2272 11.2424 11.7885 12.4292 11.3692 14.0395C11.3692 14.0408 11.3679 14.0421 11.3679 14.0434L25.122 28.106Z" fill="#34A853"/>
<path d="M61.2853 15.4032C61.2853 16.8085 60.8684 17.928 60.0345 18.7618C59.0977 19.7549 57.8657 20.2515 56.3386 20.2515C54.8771 20.2515 53.6404 19.7456 52.6286 18.7337C51.6168 17.7219 51.1109 16.4759 51.1109 14.9956C51.1109 13.5154 51.6168 12.2693 52.6286 11.2575C53.6404 10.2457 54.8771 9.73979 56.3386 9.73979C57.0787 9.73979 57.7767 9.87095 58.4325 10.1333C59.0883 10.3956 59.627 10.7657 60.0486 11.2435L59.1211 12.171C58.8119 11.7962 58.4091 11.5058 57.9125 11.2997C57.4254 11.0842 56.9007 10.9765 56.3386 10.9765C55.2425 10.9765 54.315 11.3559 53.5561 12.1148C52.8066 12.883 52.4319 13.8433 52.4319 14.9956C52.4319 16.148 52.8066 17.1083 53.5561 17.8765C54.315 18.6354 55.2425 19.0148 56.3386 19.0148C57.3411 19.0148 58.1749 18.7337 58.84 18.1716C59.5052 17.6095 59.8893 16.8366 59.9924 15.8529H56.3386V14.6443H61.215C61.2618 14.9066 61.2853 15.1596 61.2853 15.4032ZM68.7303 9.96464V11.2013H64.149V14.3913H68.2806V15.5999H64.149V18.7899H68.7303V20.0266H62.8561V9.96464H68.7303ZM73.9017 11.2013V20.0266H72.6088V11.2013H69.7982V9.96464H76.7123V11.2013H73.9017ZM82.4427 20.0266H81.1498V9.96464H82.4427V20.0266ZM87.8998 11.2013V20.0266H86.607V11.2013H83.7964V9.96464H90.7104V11.2013H87.8998ZM104.725 14.9956C104.725 16.4852 104.228 17.7313 103.235 18.7337C102.233 19.7456 101.005 20.2515 99.5531 20.2515C98.0916 20.2515 96.8643 19.7456 95.8712 18.7337C94.8781 17.7313 94.3816 16.4852 94.3816 14.9956C94.3816 13.506 94.8781 12.26 95.8712 11.2575C96.8643 10.2457 98.0916 9.73979 99.5531 9.73979C101.015 9.73979 102.242 10.2504 103.235 11.2716C104.228 12.274 104.725 13.5154 104.725 14.9956ZM95.7026 14.9956C95.7026 16.1573 96.0679 17.1176 96.7987 17.8765C97.5388 18.6354 98.457 19.0148 99.5531 19.0148C100.649 19.0148 101.563 18.6354 102.293 17.8765C103.034 17.127 103.404 16.1667 103.404 14.9956C103.404 13.8245 103.034 12.8643 102.293 12.1148C101.563 11.3559 100.649 10.9765 99.5531 10.9765C98.457 10.9765 97.5388 11.3559 96.7987 12.1148C96.0679 12.8736 95.7026 13.8339 95.7026 14.9956ZM107.543 20.0266H106.25V9.96464H107.824L112.715 17.7922H112.771L112.715 15.8529V9.96464H114.008V20.0266H112.659L107.543 11.8196H107.487L107.543 13.759V20.0266Z" fill="black"/>
<path d="M131.421 39.2765H133.71V23.802H131.421V39.2765ZM152.038 29.3761L149.414 36.0853H149.336L146.612 29.3761H144.147L148.23 38.7529L145.903 43.9692H148.289L154.583 29.3761H152.038ZM139.057 37.5187C138.307 37.5187 137.261 37.1412 137.261 36.2041C137.261 35.0108 138.563 34.5528 139.688 34.5528C140.694 34.5528 141.168 34.7719 141.779 35.0702C141.601 36.5037 140.378 37.5187 139.057 37.5187ZM139.333 29.0381C137.676 29.0381 135.959 29.7747 135.25 31.4074L137.281 32.2628C137.715 31.4074 138.524 31.1277 139.373 31.1277C140.556 31.1277 141.76 31.8444 141.779 33.1194V33.2778C141.365 33.0389 140.478 32.6812 139.392 32.6812C137.203 32.6812 134.973 33.8955 134.973 36.1645C134.973 38.2355 136.768 39.5699 138.78 39.5699C140.32 39.5699 141.168 38.873 141.701 38.056H141.779V39.2505H143.989V33.3174C143.989 30.5706 141.957 29.0381 139.333 29.0381M125.187 31.2601H121.932V25.9559H125.187C126.899 25.9559 127.87 27.3856 127.87 28.6074C127.87 29.8069 126.899 31.2601 125.187 31.2601ZM125.128 23.802H119.644V39.2765H121.932V33.414H125.128C127.665 33.414 130.159 31.5597 130.159 28.6074C130.159 25.6551 127.665 23.802 125.128 23.802M95.221 37.5212C93.6398 37.5212 92.3162 36.1856 92.3162 34.351C92.3162 32.4967 93.6398 31.14 95.221 31.14C96.7825 31.14 98.0067 32.4967 98.0067 34.351C98.0067 36.1856 96.7825 37.5212 95.221 37.5212ZM97.8497 30.2426H97.77C97.256 29.6249 96.2685 29.0666 95.0235 29.0666C92.4143 29.0666 90.0235 31.3789 90.0235 34.351C90.0235 37.3021 92.4143 39.5959 95.0235 39.5959C96.2685 39.5959 97.256 39.0376 97.77 38.3989H97.8497V39.1577C97.8497 41.1717 96.7825 42.2486 95.0627 42.2486C93.6594 42.2486 92.7897 41.2311 92.434 40.3732L90.4382 41.2113C91.011 42.6076 92.5333 44.322 95.0627 44.322C97.7504 44.322 100.023 42.7264 100.023 38.8383V29.3847H97.8497V30.2426ZM101.605 39.2765H103.897V23.8008H101.605V39.2765ZM107.275 34.1716C107.217 32.1377 108.837 31.1004 110.002 31.1004C110.913 31.1004 111.683 31.5584 111.939 32.217L107.275 34.1716ZM114.39 32.4163C113.956 31.2403 112.631 29.0666 109.924 29.0666C107.236 29.0666 105.004 31.1994 105.004 34.3312C105.004 37.2823 107.217 39.5959 110.18 39.5959C112.572 39.5959 113.956 38.1203 114.529 37.2625L112.75 36.0655C112.158 36.9431 111.347 37.5212 110.18 37.5212C109.015 37.5212 108.184 36.9827 107.651 35.9268L114.627 33.0142L114.39 32.4163ZM58.8121 30.682V32.9151H64.1076C63.9494 34.1716 63.5348 35.0888 62.903 35.7263C62.1314 36.5049 60.9256 37.3628 58.8121 37.3628C55.5504 37.3628 53.0013 34.71 53.0013 31.4198C53.0013 28.1283 55.5504 25.4768 58.8121 25.4768C60.5711 25.4768 61.8555 26.175 62.8037 27.0724L64.3652 25.4966C63.0404 24.2204 61.2826 23.2425 58.8121 23.2425C54.3458 23.2425 50.5909 26.9127 50.5909 31.4198C50.5909 35.9268 54.3458 39.5959 58.8121 39.5959C61.2225 39.5959 63.0404 38.7974 64.4634 37.3021C65.9268 35.8266 66.3806 33.7532 66.3806 32.0771C66.3806 31.5584 66.3414 31.0806 66.2617 30.682H58.8121ZM72.4024 37.5212C70.8212 37.5212 69.4571 36.2054 69.4571 34.3312C69.4571 32.4361 70.8212 31.14 72.4024 31.14C73.9823 31.14 75.3464 32.4361 75.3464 34.3312C75.3464 36.2054 73.9823 37.5212 72.4024 37.5212ZM72.4024 29.0666C69.516 29.0666 67.1645 31.2799 67.1645 34.3312C67.1645 37.3628 69.516 39.5959 72.4024 39.5959C75.2875 39.5959 77.6391 37.3628 77.6391 34.3312C77.6391 31.2799 75.2875 29.0666 72.4024 29.0666ZM83.8264 37.5212C82.2452 37.5212 80.8811 36.2054 80.8811 34.3312C80.8811 32.4361 82.2452 31.14 83.8264 31.14C85.4076 31.14 86.7704 32.4361 86.7704 34.3312C86.7704 36.2054 85.4076 37.5212 83.8264 37.5212ZM83.8264 29.0666C80.9413 29.0666 78.5897 31.2799 78.5897 34.3312C78.5897 37.3628 80.9413 39.5959 83.8264 39.5959C86.7115 39.5959 89.0631 37.3628 89.0631 34.3312C89.0631 31.2799 86.7115 29.0666 83.8264 29.0666Z" fill="black"/>
</svg>
