<svg width="80" height="80" viewBox="0 0 80 80" fill="none" xmlns="http://www.w3.org/2000/svg">
<g clip-path="url(#clip0_0_191)">
<path d="M69.6 36.6667C66.8 36.6667 64.2 37.7334 62.2334 39.7L36.6667 65.3V80H51.3667L76.9667 54.4334C78.9334 52.4667 80 49.8667 80 47.0667C80 41.3334 75.3334 36.6667 69.6 36.6667ZM72.2334 49.7L48.6334 73.3334H43.3334V68.0334L66.9667 44.4334C67.6667 43.7334 68.6 43.3334 69.6 43.3334C71.6667 43.3334 73.3334 45 73.3334 47.0667C73.3334 48.0667 72.9334 49 72.2334 49.7Z" fill="#FFF528"/>
<path d="M8.2 56.9C7.2 50.2333 6.66667 43.4 6.66667 36.6667C6.66667 29.9667 7.16667 23.2 8.2 16.5667C8.83333 12.3 12.2333 8.86667 16.4333 8.20001C29.7667 6.16667 43.4667 6.16667 56.7667 8.20001C61.1 8.86667 64.5 12.2667 65.1667 16.7C65.8333 21.0333 66.2667 25.4333 66.4667 29.8H73.1667C72.9333 25.1 72.4667 20.3667 71.7667 15.7C70.6333 8.36667 65.0333 2.70001 57.7667 1.60001C43.8 -0.533325 29.4 -0.533325 15.4333 1.63334C8.26667 2.73334 2.7 8.33334 1.6 15.5667C0.533333 22.5333 0 29.6333 0 36.6667C0 43.7333 0.533333 50.9 1.63333 57.9C2.73333 65.0667 8.36667 70.6333 15.7 71.7667C20.4 72.4667 25.2333 72.9333 30 73.1667V66.4667C25.5667 66.2667 21.1 65.8333 16.7 65.1667C12.2667 64.5 8.86667 61.1667 8.2 56.9Z" fill="#FFF528"/>
<path d="M28.3333 20.4333C27.3 19.8667 26.0333 19.8667 25 20.4667C23.9666 21.0333 23.3333 22.1333 23.3333 23.3333V50C23.3333 51.2 23.9666 52.3 25 52.8667C25.5 53.2 26.1 53.3333 26.6666 53.3333C27.2333 53.3333 27.8 53.2 28.3333 52.9L51.6666 39.5667C52.7 38.9667 53.3333 37.8667 53.3333 36.6667C53.3333 35.4667 52.7 34.3667 51.6666 33.7667L28.3333 20.4333ZM30 44.2667V29.0667L43.2666 36.6667L30 44.2667Z" fill="#FFF528"/>
</g>
<defs>
<clipPath id="clip0_0_191">
<rect width="80" height="80" fill="white"/>
</clipPath>
</defs>
</svg>
