<svg width="72" height="37" viewBox="0 0 72 37" fill="none" xmlns="http://www.w3.org/2000/svg">
<g clip-path="url(#clip0_4084_14669)">
<path d="M11.3639 36.5154V9.59927H0V0H34.4089V9.59927H22.7277V36.5175H11.3639V36.5154Z" fill="#FFAA45"/>
<path d="M70.5867 11.0467C69.6452 8.79164 68.3017 6.84494 66.5625 5.2066C64.8191 3.56826 62.7774 2.29074 60.431 1.37402C58.0846 0.457308 55.5075 0 52.6999 0H36.2772V10.7887H47.7934V9.72724H52.4312C53.6055 9.72724 54.6697 9.9475 55.6303 10.388C56.5908 10.8286 57.4244 11.4369 58.1353 12.2131C58.8462 12.9871 59.3964 13.9122 59.7878 14.9884C60.1792 16.0624 60.3738 17.2351 60.3738 18.5021C60.3738 19.7691 60.1792 20.9439 59.7878 22.0179C59.3964 23.092 58.8462 24.0171 58.1353 24.7932C57.4244 25.5694 56.5887 26.1777 55.6303 26.6183C54.6697 27.0588 53.6033 27.2791 52.4312 27.2791H47.7934V26.2176H36.2772V37.0063H52.6999C55.5054 37.0063 58.0846 36.549 60.431 35.6323C62.7774 34.7156 64.8191 33.438 66.5625 31.7997C68.3017 30.1614 69.6452 28.2063 70.5867 25.9323C71.5282 23.6584 72.0001 21.1851 72.0001 18.5063C72.0001 15.8275 71.5282 13.3081 70.5867 11.053V11.0467Z" fill="#FFAA45"/>
<path d="M29.9171 15.5401C30.3233 15.324 30.6407 15.0219 30.8671 14.6338C31.0956 14.2457 31.2098 13.7926 31.2098 13.2787C31.2098 12.8193 31.0956 12.4144 30.8671 12.0599C30.6386 11.7075 30.3212 11.4285 29.9171 11.2229C29.5108 11.0173 29.0475 10.9166 28.5291 10.9166H25.0254V18.3321H27.1835V15.8631H27.5432L28.9459 18.3321H31.5208L29.8938 15.5526C29.8938 15.5526 29.9107 15.5442 29.9192 15.5401H29.9171ZM27.1814 12.7165H28.1208C28.3133 12.7165 28.472 12.7459 28.5968 12.8067C28.7217 12.8675 28.8148 12.9514 28.874 13.0605C28.9354 13.1696 28.965 13.3018 28.965 13.457C28.965 13.6269 28.9354 13.7717 28.874 13.8912C28.8126 14.0108 28.7238 14.1052 28.6074 14.1723C28.4889 14.2395 28.3429 14.273 28.1631 14.273H27.1793V12.7165H27.1814Z" fill="#FFAA45"/>
<path d="M29.3289 24.4471C29.3289 24.6527 29.2824 24.8331 29.1893 24.9925C29.0962 25.1519 28.9714 25.2778 28.8148 25.368C28.6582 25.4603 28.4763 25.5065 28.2689 25.5065C28.0764 25.5065 27.9029 25.4603 27.7506 25.368C27.5982 25.2757 27.4776 25.1498 27.393 24.9925C27.3084 24.8331 27.2639 24.6527 27.2639 24.4471V19.9768H24.9344V24.5415C24.9344 25.1058 25.0762 25.6072 25.3618 26.0456C25.6475 26.484 26.041 26.828 26.5424 27.0777C27.0439 27.3294 27.6194 27.4532 28.2689 27.4532C28.9185 27.4532 29.4918 27.3273 29.9954 27.0777C30.4968 26.828 30.8904 26.4819 31.176 26.0456C31.4616 25.6072 31.6034 25.1058 31.6034 24.5415V19.9768H29.3268V24.4471H29.3289Z" fill="#FFAA45"/>
<path d="M27.5919 34.661V33.6352H30.573V31.8961H27.5919V30.9543H30.9686V29.0999H25.3809V36.5154H31.1612V34.661H27.5919Z" fill="#FFAA45"/>
<path d="M39.9163 20.0103C39.9163 20.6186 39.8084 21.2626 39.5905 21.9444C39.3746 22.6241 39.1186 23.1191 38.8245 23.4275C38.5982 23.6646 38.321 23.7841 37.9888 23.7841C37.1573 23.7841 36.3237 23.1821 35.4922 21.9759C36.0275 22.2213 36.4274 22.3451 36.6961 22.3451C37.0875 22.3451 37.5022 22.1877 37.938 21.8752C38.3929 21.5458 38.7082 21.1557 38.8817 20.7046C38.7378 20.3942 38.6172 20.1739 38.5199 20.0439C38.4077 19.8991 38.2321 19.7397 37.9952 19.5677L38.7907 17.7468C39.5397 18.4412 39.9142 19.1964 39.9142 20.0103H39.9163Z" fill="#FFAA45"/>
<path d="M42.6329 17.2161C42.6329 18.1832 42.5525 18.9321 42.3896 19.4628C42.2055 20.0565 41.8331 20.711 41.2724 21.4284C41.2724 18.8943 41.1476 16.8448 40.8979 15.2841L42.2478 13.6206C42.5038 14.8562 42.6329 16.054 42.6329 17.2161Z" fill="#FFAA45"/>
<path d="M47.6938 19.1818C47.6938 19.7041 47.3998 20.432 46.8095 21.3655H43.5702L44.1288 19.2992H46.1726C46.0562 18.7622 45.7939 18.3762 45.3876 18.1455C45.0893 17.9735 44.8989 17.8896 44.8122 17.8938L44.4504 17.9168C44.3869 17.921 44.3551 17.8749 44.3551 17.7763C44.3551 17.705 44.5392 17.2477 44.9095 16.4044C45.0195 16.1589 45.1591 16.0352 45.3326 16.0352C45.6415 16.0352 46.0647 16.2638 46.6021 16.719C47.3299 17.34 47.6938 18.1602 47.6938 19.1839V19.1818Z" fill="#FFAA45"/>
</g>
<defs>
<clipPath id="clip0_4084_14669">
<rect width="72" height="37" fill="white"/>
</clipPath>
</defs>
</svg>
