<svg width="80" height="79" viewBox="0 0 80 79" fill="none" xmlns="http://www.w3.org/2000/svg">
<g clip-path="url(#clip0_0_46)">
<path d="M72.2917 72.524C73.0052 72.524 73.5837 71.944 73.5837 71.2285C73.5837 70.513 73.0052 69.933 72.2917 69.933C71.5781 69.933 70.9996 70.513 70.9996 71.2285C70.9996 71.944 71.5781 72.524 72.2917 72.524Z" fill="#FFF528"/>
<path d="M30.9583 62.1149C37.9364 62.1197 44.7091 59.7474 50.1665 55.3871L58.8984 64.147L58.4906 64.5561C58.2673 64.7803 58.137 65.081 58.1258 65.3976C58.1146 65.7143 58.2233 66.0234 58.4302 66.263L68.2697 77.6533C68.61 78.0461 69.0272 78.3646 69.4953 78.5891C69.9635 78.8137 70.4726 78.9394 70.9912 78.9586C71.0351 78.9605 71.0791 78.9611 71.1236 78.9611C72.1259 78.9598 73.0868 78.5606 73.7964 77.8509L78.894 72.7372C79.2607 72.3691 79.5479 71.9294 79.7378 71.4452C79.9276 70.9611 80.016 70.443 79.9976 69.9231C79.9791 69.4032 79.854 68.8927 79.6303 68.4234C79.4065 67.954 79.0888 67.5359 78.6969 67.195L67.3431 57.3236C67.104 57.1162 66.7955 57.0072 66.4795 57.0184C66.1636 57.0297 65.8635 57.1603 65.6396 57.3842L65.233 57.7922L56.3141 48.8444C60.277 43.1499 62.22 36.2869 61.8321 29.354C61.4442 22.4211 58.7479 15.8191 54.1746 10.6047C49.6014 5.39037 43.4156 1.86512 36.6076 0.593251C29.7995 -0.678618 22.7626 0.376432 16.6234 3.58953C10.4842 6.80263 5.59747 11.988 2.74551 18.3156C-0.10645 24.6433 -0.758789 31.7474 0.892909 38.4908C2.54461 45.2342 6.40484 51.2271 11.8557 55.5102C17.3066 59.7933 24.033 62.1189 30.9583 62.1149ZM66.5851 59.9821L77.0587 69.0885C77.1913 69.204 77.2988 69.3456 77.3745 69.5045C77.4502 69.6634 77.4925 69.8362 77.4988 70.0122C77.505 70.1882 77.4751 70.3636 77.4108 70.5275C77.3466 70.6914 77.2494 70.8402 77.1252 70.9649L72.0276 76.0792C71.7734 76.3247 71.4326 76.4594 71.0797 76.4538C70.9041 76.4482 70.7316 76.406 70.5731 76.33C70.4147 76.2539 70.2737 76.1456 70.1593 76.0119L61.0815 65.5035L66.5851 59.9821ZM63.4653 59.5656L60.666 62.3738L52.0668 53.7468C53.0338 52.8432 53.9427 51.8791 54.7878 50.8601L63.4653 59.5656ZM30.9583 2.50675C36.5906 2.50354 42.0975 4.17528 46.7822 7.31051C51.4669 10.4457 55.1191 14.9036 57.2767 20.1203C59.4344 25.3369 60.0006 31.078 58.9037 36.6174C57.8069 42.1568 55.0963 47.2455 51.1147 51.2401C47.1332 55.2346 42.0596 57.9554 36.5357 59.0584C31.0118 60.1614 25.2857 59.597 20.0817 57.4366C14.8777 55.2761 10.4297 51.6168 7.30011 46.9213C4.17054 42.2259 2.50009 36.7053 2.50003 31.0578C2.5063 23.4904 5.50605 16.2345 10.8412 10.8819C16.1763 5.52941 23.4111 2.51742 30.9583 2.50675Z" fill="#FFF528"/>
<path d="M30.9582 56.2839C35.9348 56.2865 40.8003 54.8092 44.9394 52.0389C49.0785 49.2685 52.3053 45.3296 54.2115 40.7203C56.1177 36.111 56.6178 31.0383 55.6485 26.144C54.6792 21.2497 52.284 16.7535 48.766 13.2243C45.2479 9.69498 40.765 7.29111 35.8843 6.31671C31.0035 5.34231 25.9442 5.84115 21.3463 7.75014C16.7483 9.65913 12.8182 12.8925 10.0532 17.0413C7.28815 21.1901 5.81232 26.0679 5.81238 31.0578C5.81822 37.7442 8.46897 44.1552 13.1831 48.8843C17.8972 53.6135 24.2898 56.2746 30.9582 56.2839ZM30.9582 8.33777C35.4403 8.33517 39.8225 9.66543 43.5504 12.1603C47.2784 14.6552 50.1847 18.2026 51.9018 22.3538C53.6188 26.5051 54.0694 31.0737 53.1966 35.4817C52.3238 39.8898 50.1668 43.9393 46.9984 47.118C43.8301 50.2967 39.7927 52.4619 35.3969 53.3397C31.0012 54.2174 26.4445 53.7683 22.3034 52.0491C18.1622 50.33 14.6226 47.418 12.1322 43.6815C9.64175 39.945 8.31244 35.5519 8.31238 31.0578C8.31733 25.0359 10.7044 19.2619 14.9499 15.0026C19.1953 10.7432 24.9525 8.34631 30.9582 8.33777Z" fill="#FFF528"/>
<path d="M21.3348 27.985C21.2183 29.7056 21.5203 31.4289 22.2149 33.0066C22.9095 34.5843 23.9758 35.9693 25.3222 37.0424C25.7061 37.3384 26.0176 37.7182 26.2332 38.153C26.4487 38.5877 26.5626 39.0661 26.5661 39.5516V41.4995C26.5661 42.6696 27.4811 43.9738 28.7939 43.9738H34.4146C35.7153 43.9738 36.5887 42.7027 36.5887 41.5161V39.6593C36.5961 39.1528 36.7169 38.6545 36.9421 38.2012C37.1674 37.7478 37.4913 37.351 37.89 37.04C39.1467 36.0447 40.1607 34.7753 40.8548 33.3283C41.5489 31.8812 41.9049 30.2945 41.8957 28.6888C41.897 27.228 41.5994 25.7824 41.0214 24.4414C40.4434 23.1005 39.5972 21.8927 38.5351 20.8927C37.5158 19.9318 36.3088 19.1934 34.9903 18.7243C33.6718 18.2553 32.2705 18.0656 30.8752 18.1675C28.3723 18.377 26.029 19.4854 24.2762 21.2891C22.5233 23.0927 21.4788 25.4702 21.3348 27.9844L21.3348 27.985ZM23.8299 28.1447C23.9334 26.2353 24.7209 24.4276 26.0476 23.054C27.3743 21.6803 29.151 20.8331 31.051 20.6681C32.1043 20.5887 33.1625 20.7308 34.1579 21.0853C35.1532 21.4399 36.0637 21.999 36.831 22.7268C37.6423 23.4919 38.2885 24.4158 38.7297 25.4413C39.1708 26.4667 39.3975 27.572 39.3957 28.6888C39.4038 29.9156 39.1329 31.1282 38.6036 32.2344C38.0743 33.3405 37.3004 34.3111 36.3409 35.0724C35.6468 35.619 35.0841 36.315 34.6943 37.1089C34.3044 37.9028 34.0975 38.7744 34.0887 39.6593V41.4671H29.0661V39.5516C29.0637 38.687 28.8646 37.8343 28.4841 37.0585C28.1035 36.2826 27.5516 35.604 26.8701 35.0743C25.8418 34.2523 25.0279 33.1922 24.4983 31.9852C23.9687 30.7781 23.7394 29.4603 23.8299 28.1447Z" fill="#FFF528"/>
<path d="M34.198 45.3544H29.0314C28.6999 45.3544 28.3819 45.4864 28.1475 45.7215C27.9131 45.9565 27.7814 46.2753 27.7814 46.6077C27.7814 46.9401 27.9131 47.2589 28.1475 47.494C28.3819 47.729 28.6999 47.8611 29.0314 47.8611H34.198C34.5295 47.8611 34.8475 47.729 35.0819 47.494C35.3163 47.2589 35.448 46.9401 35.448 46.6077C35.448 46.2753 35.3163 45.9565 35.0819 45.7215C34.8475 45.4864 34.5295 45.3544 34.198 45.3544Z" fill="#FFF528"/>
<path d="M32.9065 49.2417H30.3229C29.9914 49.2417 29.6734 49.3737 29.439 49.6088C29.2046 49.8438 29.0729 50.1626 29.0729 50.495C29.0729 50.8275 29.2046 51.1463 29.439 51.3813C29.6734 51.6164 29.9914 51.7484 30.3229 51.7484H32.9065C33.238 51.7484 33.556 51.6164 33.7904 51.3813C34.0248 51.1463 34.1565 50.8275 34.1565 50.495C34.1565 50.1626 34.0248 49.8438 33.7904 49.6088C33.556 49.3737 33.238 49.2417 32.9065 49.2417Z" fill="#FFF528"/>
<path d="M31.604 16.0249C31.9355 16.0249 32.2535 15.8928 32.4879 15.6578C32.7223 15.4227 32.854 15.1039 32.854 14.7715V11.6198C32.854 11.2874 32.7223 10.9686 32.4879 10.7336C32.2535 10.4985 31.9355 10.3665 31.604 10.3665C31.2725 10.3665 30.9545 10.4985 30.7201 10.7336C30.4857 10.9686 30.354 11.2874 30.354 11.6198V14.7715C30.354 15.1039 30.4857 15.4227 30.7201 15.6578C30.9546 15.8928 31.2725 16.0249 31.604 16.0249Z" fill="#FFF528"/>
<path d="M40.9375 19.7824C41.1049 19.7826 41.2706 19.749 41.4247 19.6836C41.5789 19.6182 41.7183 19.5224 41.8347 19.4018L43.5602 17.6191C43.6745 17.501 43.7645 17.3614 43.825 17.2084C43.8855 17.0554 43.9153 16.8919 43.9128 16.7274C43.9104 16.5628 43.8756 16.4003 43.8104 16.2492C43.7453 16.0981 43.6512 15.9614 43.5333 15.8468C43.4155 15.7322 43.2763 15.642 43.1237 15.5813C42.9711 15.5206 42.8081 15.4907 42.644 15.4932C42.4799 15.4957 42.3178 15.5306 42.1671 15.5959C42.0165 15.6612 41.8801 15.7556 41.7658 15.8737L40.0403 17.6564C39.8693 17.8332 39.754 18.0565 39.7088 18.2986C39.6637 18.5407 39.6906 18.7907 39.7863 19.0175C39.882 19.2443 40.0423 19.4378 40.247 19.5739C40.4517 19.7099 40.6919 19.7825 40.9375 19.7824Z" fill="#FFF528"/>
<path d="M43.4137 27.8179C43.4137 28.1503 43.5454 28.4691 43.7798 28.7042C44.0143 28.9392 44.3322 29.0713 44.6637 29.0713H47.1039C47.4354 29.0713 47.7533 28.9392 47.9878 28.7042C48.2222 28.4691 48.3539 28.1503 48.3539 27.8179C48.3539 27.4855 48.2222 27.1667 47.9878 26.9317C47.7533 26.6966 47.4354 26.5646 47.1039 26.5646H44.6637C44.3322 26.5646 44.0143 26.6966 43.7798 26.9317C43.5454 27.1667 43.4137 27.4855 43.4137 27.8179Z" fill="#FFF528"/>
<path d="M16.1041 29.0713H18.5443C18.8758 29.0713 19.1938 28.9392 19.4282 28.7042C19.6626 28.4691 19.7943 28.1503 19.7943 27.8179C19.7943 27.4855 19.6626 27.1667 19.4282 26.9317C19.1938 26.6966 18.8758 26.5646 18.5443 26.5646H16.1041C15.7726 26.5646 15.4547 26.6966 15.2202 26.9317C14.9858 27.1667 14.8541 27.4855 14.8541 27.8179C14.8541 28.1503 14.9858 28.4691 15.2202 28.7042C15.4547 28.9392 15.7726 29.0713 16.1041 29.0713Z" fill="#FFF528"/>
<path d="M21.2842 19.1784C21.515 19.417 21.831 19.5539 22.1624 19.559C22.4939 19.564 22.8138 19.4368 23.0518 19.2054C23.2897 18.9739 23.4263 18.6571 23.4313 18.3248C23.4363 17.9924 23.3095 17.6716 23.0786 17.433L21.3532 15.6503C21.2389 15.5322 21.1025 15.4378 20.9518 15.3725C20.8011 15.3072 20.6391 15.2723 20.4749 15.2698C20.3108 15.2673 20.1478 15.2972 19.9952 15.3579C19.8426 15.4186 19.7034 15.5088 19.5856 15.6234C19.4678 15.738 19.3736 15.8747 19.3085 16.0258C19.2434 16.1769 19.2086 16.3394 19.2061 16.504C19.2036 16.6685 19.2334 16.832 19.294 16.985C19.3545 17.138 19.4444 17.2776 19.5587 17.3957L21.2842 19.1784Z" fill="#FFF528"/>
</g>
<defs>
<clipPath id="clip0_0_46">
<rect width="80" height="78.961" fill="white"/>
</clipPath>
</defs>
</svg>
