<svg width="88" height="84" viewBox="0 0 88 84" fill="none" xmlns="http://www.w3.org/2000/svg">
<g clip-path="url(#clip0_0_210)">
<path d="M16.488 14.77H22.1989C22.7497 14.77 23.1989 14.3207 23.1989 13.77C23.1989 13.2192 22.7497 12.77 22.1989 12.77H16.488C15.9373 12.77 15.488 13.2192 15.488 13.77C15.488 14.3246 15.9333 14.77 16.488 14.77Z" fill="#FFF528"/>
<path d="M19.344 66.234C17.5862 66.234 16.1526 67.6637 16.1526 69.4254C16.1526 71.1832 17.5823 72.6168 19.344 72.6168C21.1018 72.6168 22.5354 71.1871 22.5354 69.4254C22.5354 67.6637 21.1018 66.234 19.344 66.234ZM19.344 70.6168C18.6877 70.6168 18.1526 70.0816 18.1526 69.4254C18.1526 68.7692 18.6877 68.234 19.344 68.234C20.0002 68.234 20.5354 68.7692 20.5354 69.4254C20.5354 70.0816 20.0002 70.6168 19.344 70.6168Z" fill="#FFF528"/>
<path d="M26.27 30.973C22.7544 30.973 19.895 33.8324 19.895 37.348V39.0785C19.895 42.5941 22.7544 45.4535 26.27 45.4535C29.7856 45.4535 32.645 42.5941 32.645 39.0785V37.348C32.6489 33.8324 29.7856 30.973 26.27 30.973ZM30.6489 39.0785C30.6489 41.4926 28.688 43.4535 26.2739 43.4535C23.8598 43.4535 21.8989 41.4926 21.8989 39.0785V37.348C21.8989 34.9339 23.8598 32.973 26.2739 32.973C28.688 32.973 30.6489 34.9339 30.6489 37.348V39.0785Z" fill="#FFF528"/>
<path d="M71.043 20.543C74.5586 20.543 77.418 17.6836 77.418 14.168V12.4375C77.418 8.9219 74.5586 6.0625 71.043 6.0625C67.5274 6.0625 64.668 8.9219 64.668 12.4375V14.168C64.668 17.6836 67.5274 20.543 71.043 20.543ZM66.668 12.4375C66.668 10.0234 68.6289 8.0625 71.043 8.0625C73.4571 8.0625 75.418 10.0234 75.418 12.4375V14.168C75.418 16.5821 73.4571 18.543 71.043 18.543C68.6289 18.543 66.668 16.5821 66.668 14.168V12.4375Z" fill="#FFF528"/>
<path d="M71.051 50.461C64.9846 50.461 59.692 53.7696 56.84 58.668L41.531 48.129C42.2966 46.2306 42.7302 44.1681 42.7302 42.0001C42.7302 39.8321 42.3005 37.7696 41.5349 35.8712L56.8399 25.3322C59.6915 30.2306 64.9883 33.5392 71.0509 33.5392C80.1212 33.5392 87.4999 26.1603 87.4999 17.0902C87.4999 8.01988 80.121 0.641174 71.0509 0.641174C61.9806 0.641174 54.6019 8.02008 54.6019 17.0902C54.6019 19.3754 55.0746 21.555 55.9222 23.5355L40.6642 34.0435C39.9845 32.8169 39.1447 31.6919 38.1837 30.6841V16.2431C38.1837 11.9775 34.711 8.50478 30.4454 8.50478L8.23842 8.50087C3.97282 8.50087 0.500122 11.9736 0.500122 16.2431V68.6611C0.500122 72.9267 3.97282 76.3994 8.23842 76.3994H30.4454C34.711 76.3994 38.1837 72.9267 38.1837 68.6611V53.5791C38.1837 53.5048 38.1564 53.4384 38.1408 53.3681C39.1212 52.3486 39.9728 51.204 40.6642 49.9619L55.9182 60.4659C55.0705 62.4464 54.5979 64.6261 54.5979 66.9112C54.5979 75.9815 61.9768 83.3602 71.0469 83.3602C80.121 83.3602 87.4999 75.9813 87.4999 66.9112C87.4999 57.8409 80.121 50.4622 71.0509 50.4622L71.051 50.461ZM61.6096 28.004C62.1331 25.547 64.3284 23.7228 66.8713 23.7228H75.2307C77.8049 23.7228 79.9729 25.5119 80.4963 28.0001C77.9611 30.1993 74.6643 31.5392 71.051 31.5392C67.4416 31.5392 64.1448 30.1994 61.6096 28.004ZM71.051 2.64097C79.0198 2.64097 85.5 9.12537 85.5 17.09C85.5 20.6291 84.2188 23.8673 82.0977 26.383C81.0039 23.6135 78.3243 21.7228 75.2266 21.7228H66.8672C63.8086 21.7228 61.1055 23.6408 60 26.3869C57.8789 23.8713 56.5938 20.6291 56.5938 17.09C56.6016 9.12517 63.0823 2.64097 71.051 2.64097ZM30.457 46.633H22.1015C19.0429 46.633 16.3398 48.551 15.2343 51.2971C13.1171 48.7815 11.832 45.5393 11.832 42.0002C11.832 34.0314 18.3125 27.5512 26.281 27.5512C34.2458 27.5512 40.73 34.0317 40.73 42.0002C40.73 45.5393 39.4488 48.7775 37.3316 51.2932C36.2339 48.5237 33.5547 46.633 30.457 46.633ZM35.7226 52.9103C33.1874 55.1095 29.8906 56.4494 26.2773 56.4494C22.6679 56.4494 19.3711 55.1096 16.8359 52.9142C17.3594 50.4572 19.5547 48.633 22.0976 48.633H30.4531C33.0312 48.633 35.1992 50.4221 35.7226 52.9103ZM30.4453 74.3983H8.23832C5.07422 74.3983 2.50002 71.8241 2.50002 68.66V16.242C2.50002 13.0779 5.07422 10.5037 8.23832 10.5037H30.4453C33.6094 10.5037 36.1836 13.0779 36.1836 16.242V28.898C33.4258 26.8082 30 25.5503 26.2774 25.5503C17.2071 25.5503 9.82842 32.9292 9.82842 41.9993C9.82842 51.0694 17.2073 58.4483 26.2774 58.4483C30.0001 58.4483 33.4219 57.1905 36.1836 55.1006V68.6596C36.1836 71.8237 33.6094 74.3983 30.4453 74.3983ZM61.6093 77.8241C62.1328 75.3671 64.3281 73.5429 66.871 73.5429H75.2304C77.8046 73.5429 79.9726 75.332 80.496 77.8202C77.9608 80.0194 74.664 81.3593 71.0507 81.3593C67.4413 81.3593 64.1445 80.0195 61.6093 77.8241ZM82.0973 76.203C81.0035 73.4335 78.3239 71.5428 75.2262 71.5428H66.8668C63.8082 71.5428 61.1051 73.4608 59.9996 76.2069C57.8785 73.6913 56.5934 70.4491 56.5934 66.91C56.5934 58.9412 63.0739 52.461 71.0424 52.461C79.019 52.461 85.4994 58.9415 85.4994 66.91C85.4994 70.4452 84.2184 73.6873 82.0973 76.203Z" fill="#FFF528"/>
<path d="M71.043 55.883C67.5274 55.883 64.668 58.7424 64.668 62.258V63.9846C64.668 67.5002 67.5274 70.3596 71.043 70.3596C74.5586 70.3596 77.418 67.5002 77.418 63.9846V62.258C77.418 58.7424 74.5586 55.883 71.043 55.883ZM75.418 63.9846C75.418 66.3987 73.4571 68.3596 71.043 68.3596C68.6289 68.3596 66.668 66.3987 66.668 63.9846V62.258C66.668 59.8439 68.6289 57.883 71.043 57.883C73.4571 57.883 75.418 59.8439 75.418 62.258V63.9846Z" fill="#FFF528"/>
</g>
<defs>
<clipPath id="clip0_0_210">
<rect width="88" height="84" fill="white"/>
</clipPath>
</defs>
</svg>
